<svg width="987" height="7" viewBox="0 0 987 7" fill="none" xmlns="http://www.w3.org/2000/svg">
<path d="M3 0.333376C1.52728 0.333376 0.333374 1.52728 0.333374 3.00004C0.333374 4.4728 1.52728 5.66671 3 5.66671C4.47278 5.66671 5.66669 4.4728 5.66669 3.00004C5.66669 1.52728 4.47278 0.333376 3 0.333376ZM984 1.33329C982.527 1.33329 981.333 2.5272 981.333 3.99996C981.333 5.47272 982.527 6.66662 984 6.66662C985.473 6.66662 986.667 5.47272 986.667 3.99996C986.667 2.5272 985.473 1.33329 984 1.33329ZM3 3.00004L2.99951 3.50004L983.999 4.49996L984 3.99996L984.001 3.49996L3.00055 2.50004L3 3.00004Z" fill="black"/>
</svg>
