<svg width="211" height="211" viewBox="0 0 211 211" fill="none" xmlns="http://www.w3.org/2000/svg">
<path d="M105.5 0C163.766 0 211 47.234 211 105.5C211 163.766 163.766 211 105.5 211C47.234 211 0 163.766 0 105.5C0 47.234 47.234 0 105.5 0ZM114.44 48.3496C110.835 45.3144 105.62 45.22 101.914 48.0654L101.56 48.3496L45.5596 95.4932C41.3349 99.05 40.793 105.358 44.3496 109.583C47.9064 113.808 54.2154 114.35 58.4404 110.793L98 77.4902V166C98 171.523 102.477 176 108 176C113.523 176 118 171.523 118 166V77.4902L157.56 110.793C161.785 114.35 168.094 113.808 171.65 109.583C175.207 105.358 174.665 99.05 170.44 95.4932L114.44 48.3496Z" fill="blue"/>
</svg>
