<svg width="273" height="6" viewBox="0 0 273 6" fill="none" xmlns="http://www.w3.org/2000/svg">
<path d="M2.99963 0.333352C1.52689 0.333352 0.332977 1.52726 0.332977 3.00002C0.332977 4.47278 1.52689 5.66669 2.99963 5.66669C4.47238 5.66669 5.66629 4.47278 5.66629 3.00002C5.66629 1.52726 4.47238 0.333352 2.99963 0.333352ZM269.5 0.333333C268.027 0.333333 266.833 1.52724 266.833 3C266.833 4.47276 268.027 5.66667 269.5 5.66667C270.973 5.66667 272.167 4.47276 272.167 3C272.167 1.52724 270.973 0.333333 269.5 0.333333ZM2.99963 3.00002L2.99963 3.50002L269.5 3.5L269.5 3L269.5 2.5L2.99963 2.50002L2.99963 3.00002Z" fill="black"/>
</svg>
